<svg viewBox="0 0 500 430" fill="none" xmlns="http://www.w3.org/2000/svg">
<path d="M500 382.4H0V382.65H500V382.4Z" fill="#E5F1FF"/>
<path d="M449.9 398.49H428.22V398.74H449.9V398.49Z" fill="#E5F1FF"/>
<path d="M344.67 393.31H310.56V393.56H344.67V393.31Z" fill="#E5F1FF"/>
<path d="M441.12 389.21H396.59V389.46H441.12V389.21Z" fill="#E5F1FF"/>
<path d="M173.02 394.25H161.88V394.5H173.02V394.25Z" fill="#E5F1FF"/>
<path d="M152.97 394.25H114.58V394.5H152.97V394.25Z" fill="#E5F1FF"/>
<path d="M94.0096 390.03H66.3096V390.28H94.0096V390.03Z" fill="#E5F1FF"/>
<path d="M237 337.8H43.91C42.3973 337.797 40.9475 337.195 39.8788 336.124C38.8102 335.053 38.21 333.603 38.21 332.09V60.66C38.2231 59.156 38.8292 57.718 39.8964 56.6582C40.9637 55.5985 42.4059 55.0026 43.91 55H237C238.514 55 239.967 55.6016 241.038 56.6724C242.108 57.7433 242.71 59.1956 242.71 60.71V332.09C242.71 333.604 242.108 335.057 241.038 336.128C239.967 337.198 238.514 337.8 237 337.8ZM43.91 55.2C42.4636 55.2026 41.0774 55.7791 40.0556 56.8027C39.0338 57.8264 38.46 59.2136 38.46 60.66V332.09C38.46 333.536 39.0338 334.924 40.0556 335.947C41.0774 336.971 42.4636 337.547 43.91 337.55H237C238.447 337.547 239.834 336.971 240.858 335.948C241.881 334.924 242.457 333.537 242.46 332.09V60.66C242.457 59.2127 241.881 57.8255 240.858 56.8021C239.834 55.7787 238.447 55.2026 237 55.2H43.91Z" fill="#E5F1FF"/>
<path d="M453.31 337.8H260.21C258.696 337.797 257.246 337.195 256.175 336.125C255.105 335.054 254.503 333.604 254.5 332.09V60.66C254.516 59.1551 255.124 57.7171 256.193 56.6576C257.262 55.5981 258.705 55.0025 260.21 55H453.31C454.812 55.0052 456.252 55.6022 457.317 56.6617C458.382 57.7212 458.987 59.1578 459 60.66V332.09C459 333.601 458.401 335.05 457.335 336.121C456.268 337.191 454.821 337.795 453.31 337.8ZM260.21 55.2C258.763 55.2026 257.375 55.7787 256.352 56.8021C255.329 57.8255 254.753 59.2127 254.75 60.66V332.09C254.753 333.537 255.329 334.924 256.352 335.948C257.375 336.971 258.763 337.547 260.21 337.55H453.31C454.757 337.547 456.145 336.971 457.168 335.948C458.191 334.924 458.767 333.537 458.77 332.09V60.66C458.767 59.2127 458.191 57.8255 457.168 56.8021C456.145 55.7787 454.757 55.2026 453.31 55.2H260.21Z" fill="#E5F1FF"/>
<path d="M216.07 200.88L216.52 187.74L208.46 185.1C208.113 180.647 207.391 176.231 206.3 171.9L213.14 166.9L208.5 154.56L200.04 155.24C198.034 151.264 195.692 147.467 193.04 143.89L197.42 136.58L188.42 126.97L180.86 130.84C177.46 127.934 173.828 125.312 170 123L171.22 114.6L159.22 109.16L153.72 115.6C149.477 114.243 145.129 113.239 140.72 112.6L138.72 104.37L125.54 103.92L122.94 111.99C118.491 112.34 114.079 113.059 109.75 114.14L104.67 107.34L92.3298 111.95L93.0098 120.41C89.0361 122.446 85.2396 124.811 81.6598 127.48L74.2998 123L64.6498 132L68.5198 139.6C65.6132 142.982 63.0035 146.609 60.7198 150.44L52.3298 149.18L46.8498 161.18L53.3298 166.67C51.9629 170.91 50.9593 175.259 50.3298 179.67L41.9998 181.76L41.5498 194.9L49.6498 197.54C49.9849 201.99 50.7042 206.403 51.7998 210.73L44.9598 215.73L49.6098 228.08L58.0698 227.4C60.0705 231.379 62.4126 235.176 65.0698 238.75L60.6798 246.06L69.6798 255.67L77.2398 251.8C80.6304 254.705 84.2562 257.324 88.0798 259.63L86.8198 268.02L98.8198 273.47L104.35 267.03C108.593 268.399 112.941 269.42 117.35 270.08L119.35 278.31L132.53 278.76L135.13 270.69C139.581 270.336 143.996 269.617 148.33 268.54L153.33 275.34L165.67 270.73L165.03 262.27C168.996 260.221 172.792 257.856 176.38 255.2L183.65 259.58L193.3 250.58L189.43 242.98C192.337 239.598 194.947 235.971 197.23 232.14L205.62 233.4L211.1 221.4L204.62 215.9C206.01 211.663 207.03 207.313 207.67 202.9L216.07 200.88ZM127.28 243.45C116.968 243.102 106.991 239.703 98.6106 233.683C90.2305 227.664 83.824 219.294 80.2014 209.633C76.5788 199.972 75.9029 189.453 78.2592 179.408C80.6155 169.363 85.8981 160.242 93.4388 153.199C100.98 146.157 110.44 141.509 120.622 139.844C130.805 138.178 141.253 139.57 150.644 143.844C160.035 148.117 167.948 155.08 173.382 163.851C178.816 172.622 181.526 182.808 181.17 193.12C180.695 206.939 174.752 220.005 164.646 229.443C154.54 238.881 141.1 243.919 127.28 243.45Z" fill="#E5F1FF"/>
<path d="M441 157.42L444.31 154.33L443 151.72C443.999 150.551 444.899 149.3 445.69 147.98L448.59 148.41L450.46 144.27L448.24 142.38C448.718 140.916 449.069 139.414 449.29 137.89L452.14 137.18L452.28 132.64L449.5 131.74C449.378 130.203 449.13 128.678 448.76 127.18L451.11 125.43L449.51 121.18L446.6 121.41C445.898 120.04 445.085 118.728 444.17 117.49L445.68 114.99L442.57 111.67L439.97 113C438.799 112.003 437.548 111.104 436.23 110.31L436.65 107.41L432.52 105.52L430.62 107.75C429.153 107.294 427.652 106.959 426.13 106.75L425.42 103.91L420.88 103.74L419.97 106.54C418.438 106.657 416.919 106.905 415.43 107.28L413.69 104.93L409.43 106.52L409.67 109.44C408.295 110.135 406.984 110.948 405.75 111.87L403.23 110.36L399.91 113.45L401.2 116C400.193 117.166 399.29 118.418 398.5 119.74L395.61 119.31L393.73 123.45L395.96 125.35C395.498 126.812 395.163 128.311 394.96 129.83L392.1 130.54L391.96 135.08L394.75 135.98C394.864 137.518 395.108 139.044 395.48 140.54L393.12 142.28L394.72 146.53L397.64 146.31C398.342 147.681 399.154 148.992 400.07 150.23L398.56 152.73L401.67 156.05L404.27 154.72C405.439 155.72 406.69 156.62 408.01 157.41L407.58 160.3L411.72 162.19L413.62 159.97C415.088 160.422 416.589 160.757 418.11 160.97L418.82 163.81L423.36 163.98L424.27 161.18C425.802 161.064 427.321 160.816 428.81 160.44L430.55 162.79L434.81 161.2L434.58 158.28C435.951 157.584 437.259 156.771 438.49 155.85L441 157.42ZM417.38 138.29C416.507 137.355 415.931 136.181 415.725 134.918C415.518 133.654 415.692 132.358 416.222 131.194C416.753 130.029 417.617 129.048 418.705 128.374C419.794 127.701 421.057 127.365 422.337 127.41C423.616 127.455 424.853 127.878 425.891 128.626C426.93 129.374 427.723 130.413 428.171 131.612C428.619 132.811 428.701 134.116 428.407 135.362C428.113 136.607 427.457 137.738 426.52 138.61C425.898 139.196 425.167 139.653 424.367 139.955C423.568 140.256 422.717 140.396 421.863 140.366C421.009 140.336 420.17 140.138 419.394 139.781C418.617 139.425 417.919 138.918 417.34 138.29H417.38Z" fill="#E5F1FF"/>
<path d="M320 292.34L309.66 285.19C308.646 281.467 307.252 277.858 305.5 274.42L308.15 264.02L293.15 247.96L282.59 249.89C279.277 247.905 275.769 246.267 272.12 245L265.7 234.19L243.7 233.44L236.56 243.78C232.841 244.793 229.236 246.183 225.8 247.93L215.4 245.28L199.34 260.28L201.27 270.82C199.287 274.14 197.652 277.655 196.39 281.31L185.58 287.73L184.83 309.73L195.18 316.87C196.177 320.613 197.568 324.24 199.33 327.69L196.65 338L211.65 354.06L222.14 352.14C225.478 354.127 229.009 355.769 232.68 357.04L239.09 367.83L261.09 368.59L268.22 358.25C271.972 357.237 275.611 355.843 279.08 354.09L289.42 356.73L305.49 341.73L303.56 331.19C305.549 327.87 307.185 324.351 308.44 320.69L319.25 314.27L320 292.34ZM251.55 325.73C246.666 325.563 241.941 323.952 237.973 321.1C234.005 318.248 230.971 314.283 229.256 309.707C227.541 305.131 227.221 300.149 228.337 295.392C229.453 290.634 231.955 286.314 235.526 282.978C239.097 279.642 243.576 277.44 248.399 276.649C253.221 275.859 258.17 276.517 262.619 278.539C267.068 280.561 270.817 283.857 273.393 288.01C275.969 292.163 277.255 296.986 277.09 301.87C276.861 308.42 274.041 314.612 269.251 319.085C264.461 323.559 258.091 325.949 251.54 325.73H251.55Z" fill="#E5F1FF"/>
<path d="M343.55 230H343.48L326.16 229.41C325.81 229.404 325.466 229.309 325.162 229.134C324.858 228.959 324.602 228.71 324.42 228.41L319.75 220.56C317.233 219.639 314.798 218.509 312.47 217.18L305 218.47C304.652 218.534 304.294 218.508 303.958 218.397C303.623 218.285 303.321 218.09 303.08 217.83L291.25 205.17C291.002 204.908 290.826 204.586 290.738 204.236C290.65 203.885 290.655 203.518 290.75 203.17L292.64 195.76C291.469 193.359 290.512 190.859 289.78 188.29L282.25 183.09C281.958 182.889 281.722 182.618 281.563 182.302C281.404 181.985 281.327 181.634 281.34 181.28L281.93 163.96C281.942 163.61 282.039 163.269 282.214 162.965C282.388 162.662 282.634 162.406 282.93 162.22L290.8 157.55C291.708 155.039 292.836 152.613 294.17 150.3L292.79 142.77C292.726 142.42 292.751 142.06 292.863 141.723C292.974 141.385 293.17 141.082 293.43 140.84L306.09 129.02C306.352 128.771 306.674 128.593 307.024 128.504C307.374 128.414 307.741 128.417 308.09 128.51L315.53 130.41C317.925 129.238 320.418 128.278 322.98 127.54L328.18 120.01C328.374 119.711 328.643 119.469 328.962 119.309C329.28 119.149 329.635 119.077 329.99 119.1L347.3 119.7C347.652 119.707 347.997 119.803 348.302 119.977C348.608 120.152 348.865 120.401 349.05 120.7L353.72 128.56C356.219 129.477 358.635 130.608 360.94 131.94L368.5 130.55C368.848 130.485 369.207 130.51 369.543 130.622C369.879 130.734 370.181 130.929 370.42 131.19L382.25 143.85C382.497 144.113 382.672 144.435 382.76 144.785C382.847 145.135 382.844 145.502 382.75 145.85L380.85 153.28C382.022 155.676 382.985 158.169 383.73 160.73L391.25 165.93C391.542 166.13 391.779 166.402 391.938 166.718C392.097 167.034 392.174 167.386 392.16 167.74L391.57 185.05C391.559 185.401 391.461 185.744 391.287 186.049C391.113 186.354 390.867 186.612 390.57 186.8L382.7 191.47C381.787 193.975 380.659 196.398 379.33 198.71L380.71 206.25C380.775 206.598 380.75 206.957 380.638 207.293C380.526 207.628 380.331 207.93 380.07 208.17L367.33 220C367.068 220.248 366.746 220.425 366.396 220.512C366.046 220.6 365.679 220.596 365.33 220.5L357.93 218.61C355.519 219.776 353.013 220.736 350.44 221.48L345.29 229C345.105 229.297 344.849 229.543 344.546 229.718C344.242 229.892 343.9 229.989 343.55 230ZM327.46 225.23L342.46 225.74L347.46 218.55C347.737 218.13 348.162 217.83 348.65 217.71C351.464 216.94 354.195 215.892 356.8 214.58C357.255 214.361 357.771 214.308 358.26 214.43L365.26 216.22L376.26 205.97L375 198.74C374.903 198.235 374.996 197.711 375.26 197.27C376.746 194.794 377.969 192.17 378.91 189.44C379.069 188.945 379.404 188.525 379.85 188.26L387.38 183.8L387.89 168.8L380.69 163.8C380.311 163.541 380.027 163.165 379.88 162.73C379.88 162.68 379.88 162.62 379.88 162.56C379.11 159.796 378.065 157.116 376.76 154.56C376.529 154.102 376.472 153.576 376.6 153.08L378.4 146L368.15 135L360.96 136.32C360.458 136.411 359.94 136.319 359.5 136.06C357.019 134.572 354.392 133.342 351.66 132.39C351.504 132.34 351.353 132.273 351.21 132.19C350.922 132.01 350.682 131.763 350.51 131.47L346 123.92L331 123.4L326 130.61C325.702 131.033 325.262 131.334 324.76 131.46C321.975 132.221 319.275 133.263 316.7 134.57C316.246 134.802 315.723 134.858 315.23 134.73L308.15 132.93L297.15 143.18L298.47 150.35C298.549 150.802 298.482 151.268 298.28 151.68L298.18 151.85C296.693 154.336 295.47 156.97 294.53 159.71C294.365 160.18 294.039 160.576 293.61 160.83L286.08 165.3L285.57 180.3L292.78 185.3C293.191 185.581 293.489 185.999 293.62 186.48C294.37 189.288 295.412 192.01 296.73 194.6C296.802 194.747 296.859 194.902 296.9 195.06C296.976 195.389 296.976 195.731 296.9 196.06L295.1 203.06L305.35 214.06L312.49 212.75C312.989 212.659 313.504 212.751 313.94 213.01C316.44 214.495 319.084 215.725 321.83 216.68C322.326 216.827 322.745 217.16 323 217.61L327.46 225.23ZM336.73 206.26C336.36 206.26 335.99 206.26 335.62 206.26C327.307 206.114 319.389 202.69 313.588 196.734C307.787 190.778 304.573 182.771 304.647 174.457C304.72 166.143 308.074 158.195 313.979 152.342C319.883 146.489 327.861 143.205 336.175 143.205C344.49 143.205 352.467 146.489 358.372 152.342C364.277 158.195 367.631 166.143 367.704 174.457C367.777 182.771 364.564 190.778 358.763 196.734C352.962 202.69 345.043 206.114 336.73 206.26ZM336.73 147.17C329.466 147.295 322.545 150.285 317.474 155.489C312.404 160.692 309.594 167.688 309.656 174.953C309.719 182.219 312.649 189.165 317.809 194.28C322.968 199.396 329.94 202.266 337.205 202.266C344.471 202.266 351.442 199.396 356.602 194.28C361.762 189.165 364.692 182.219 364.754 174.953C364.817 167.688 362.007 160.692 356.936 155.489C351.866 150.285 344.945 147.295 337.68 147.17H336.73Z" fill="#E5F1FF"/>
<path d="M383.44 105.32L376.26 103.4L374.34 96.2199L377.15 93.4199L380.11 99.5499L386.25 102.52L383.44 105.32Z" fill="#E5F1FF"/>
<path d="M383.88 100.52C384.191 100.21 384.437 99.8409 384.605 99.4351C384.773 99.0293 384.86 98.5944 384.86 98.1552C384.86 97.716 384.773 97.281 384.605 96.8752C384.437 96.4695 384.191 96.1008 383.88 95.7902C383.57 95.4796 383.201 95.2332 382.795 95.0652C382.39 94.8971 381.955 94.8106 381.515 94.8106C381.076 94.8106 380.641 94.8971 380.235 95.0652C379.83 95.2332 379.461 95.4796 379.15 95.7902L382.72 90.4302L387.5 92.8502L388.55 97.8502L383.88 100.52Z" fill="#E5F1FF"/>
<path d="M376.58 94.0002L381.84 88.7402L389 90.6502L390.93 97.8202L385.67 103.08L378.5 101.15L376.58 94.0002ZM386.13 98.3002C386.598 97.8316 386.917 97.2347 387.046 96.5849C387.175 95.9352 387.108 95.2618 386.855 94.6499C386.601 94.0379 386.172 93.5149 385.621 93.147C385.07 92.779 384.423 92.5826 383.76 92.5826C383.098 92.5826 382.45 92.779 381.899 93.147C381.348 93.5149 380.919 94.0379 380.665 94.6499C380.412 95.2618 380.345 95.9352 380.474 96.5849C380.603 97.2347 380.922 97.8316 381.39 98.3002C382.024 98.9217 382.877 99.2682 383.764 99.2644C384.652 99.2607 385.502 98.907 386.13 98.2802V98.3002Z" fill="#E5F1FF"/>
<path d="M90.22 296.71L94.07 295.67L95.1 291.82L93.6 290.32L92.01 293.61L88.71 295.2L90.22 296.71Z" fill="#E5F1FF"/>
<path d="M90.0004 294.13C89.6995 293.787 89.5406 293.341 89.5557 292.885C89.5708 292.428 89.7589 291.995 90.0819 291.672C90.4049 291.349 90.8386 291.161 91.2951 291.145C91.7516 291.13 92.1968 291.289 92.5404 291.59L90.6304 288.72L88.0004 290L87.4404 292.7L90.0004 294.13Z" fill="#E5F1FF"/>
<path d="M93.9005 290.62L91.0805 287.8L87.2305 288.8L86.2305 292.65L89.0005 295.5L92.8505 294.5L93.9005 290.62ZM88.7805 292.93C88.5951 292.767 88.445 292.569 88.3395 292.346C88.234 292.123 88.1754 291.881 88.1672 291.635C88.159 291.389 88.2015 291.144 88.292 290.914C88.3826 290.685 88.5192 290.477 88.6934 290.303C88.8677 290.129 89.0758 289.992 89.305 289.901C89.5342 289.811 89.7795 289.768 90.0258 289.777C90.2721 289.785 90.5141 289.843 90.7368 289.949C90.9595 290.054 91.1581 290.204 91.3205 290.39C91.6214 290.733 91.7803 291.179 91.7652 291.635C91.7501 292.092 91.562 292.525 91.239 292.848C90.916 293.171 90.4823 293.359 90.0258 293.375C89.5693 293.39 89.1241 293.231 88.7805 292.93Z" fill="#FCDEDE"/>
<path d="M76.3597 85.6598L79.5597 88.8598C79.9599 89.2531 80.4986 89.4735 81.0597 89.4735C81.6208 89.4735 82.1595 89.2531 82.5597 88.8598C82.9506 88.4583 83.1694 87.9201 83.1694 87.3598C83.1694 86.7994 82.9506 86.2612 82.5597 85.8598L79.3697 82.6698C78.9682 82.2788 78.43 82.0601 77.8697 82.0601C77.3093 82.0601 76.7711 82.2788 76.3697 82.6698C75.978 83.0682 75.7577 83.604 75.7559 84.1627C75.754 84.7214 75.9707 85.2587 76.3597 85.6598Z" fill="#AFD0FF"/>
<path d="M74.1102 77.71C74.9452 77.4778 75.8299 77.4945 76.6556 77.7581C77.4812 78.0216 78.212 78.5206 78.758 79.1936C79.3041 79.8666 79.6418 80.6845 79.7295 81.5467C79.8173 82.409 79.6514 83.2781 79.2521 84.0474C78.8528 84.8166 78.2376 85.4526 77.482 85.8771C76.7263 86.3016 75.8632 86.4962 74.9985 86.437C74.1338 86.3778 73.3052 86.0674 72.6145 85.5439C71.9238 85.0204 71.4009 84.3065 71.1102 83.49C70.9256 82.9136 70.8569 82.3064 70.908 81.7032C70.959 81.1001 71.1288 80.5131 71.4077 79.9759C71.6865 79.4387 72.0688 78.9619 72.5326 78.573C72.9965 78.1842 73.5326 77.8909 74.1102 77.71Z" fill="#E5F1FF"/>
<path d="M70.6296 82.9548L71.0928 84.2441L80.5981 80.8295L80.1349 79.5402L70.6296 82.9548Z" fill="#AFD0FF"/>
<path d="M250 427.56C357.083 427.56 443.89 422.492 443.89 416.24C443.89 409.988 357.083 404.92 250 404.92C142.918 404.92 56.1104 409.988 56.1104 416.24C56.1104 422.492 142.918 427.56 250 427.56Z" fill="#E5F1FF"/>
<path d="M82.51 416.42C81.0704 416.353 79.6643 415.963 78.3955 415.279C77.1268 414.596 76.0279 413.636 75.18 412.47C75.1385 412.417 75.1082 412.355 75.0912 412.289C75.0742 412.224 75.0707 412.155 75.081 412.088C75.0912 412.021 75.115 411.957 75.1509 411.899C75.1869 411.842 75.2341 411.792 75.2898 411.753C75.3455 411.715 75.4085 411.688 75.475 411.674C75.5415 411.66 75.61 411.66 75.6765 411.674C75.7429 411.688 75.8059 411.715 75.8615 411.754C75.9171 411.793 75.9642 411.843 76 411.9C77.87 414.6 82 416.03 83.8 415.18C83.9803 415.104 84.141 414.987 84.27 414.84C83.3605 414.44 82.5636 413.822 81.9497 413.04C81.3357 412.259 80.9237 411.339 80.75 410.36C80.52 409.09 80.34 407.36 81.38 407.14C82.82 406.82 84.7 410.29 85.38 412.92C85.5032 413.355 85.5472 413.809 85.51 414.26C86.0868 414.432 86.6935 414.48 87.29 414.4C87.5588 414.38 87.8204 414.303 88.058 414.176C88.2956 414.048 88.504 413.873 88.67 413.66C88.0119 413.164 87.466 412.534 87.0679 411.812C86.6699 411.09 86.4286 410.292 86.36 409.47C85.98 406.73 86.27 406.26 86.57 406.02C86.6672 405.946 86.7832 405.9 86.9051 405.887C87.027 405.875 87.1498 405.897 87.26 405.95C88.33 406.4 89.62 410.28 89.87 412.48C89.9 412.709 89.9 412.941 89.87 413.17C90.3011 413.336 90.7582 413.424 91.22 413.43C92.068 413.463 92.9067 413.244 93.63 412.8C93.49 412.71 93.36 412.61 93.23 412.51C92.23 411.62 91.77 410.2 91.95 408.18C92.09 406.61 92.44 405.75 93.07 405.48C93.2733 405.399 93.4958 405.378 93.7107 405.421C93.9255 405.463 94.1233 405.567 94.28 405.72C94.9551 406.466 95.4595 407.349 95.7583 408.309C96.0571 409.27 96.143 410.283 96.01 411.28C95.9232 411.695 95.7494 412.087 95.5 412.43C97.34 412.75 99.92 412.23 102.15 411.68C102.216 411.664 102.284 411.662 102.351 411.672C102.417 411.683 102.481 411.707 102.539 411.742C102.596 411.777 102.646 411.823 102.686 411.878C102.726 411.933 102.754 411.995 102.77 412.06C102.786 412.126 102.788 412.194 102.778 412.261C102.767 412.327 102.744 412.391 102.708 412.449C102.673 412.506 102.627 412.557 102.572 412.596C102.518 412.636 102.456 412.664 102.39 412.68C99.68 413.35 96.76 413.9 94.7 413.3C93.6945 414.065 92.4631 414.473 91.2 414.46C90.6395 414.453 90.0846 414.348 89.56 414.15C89.3274 414.51 89.0153 414.812 88.6477 415.032C88.2802 415.252 87.867 415.385 87.44 415.42C86.6883 415.517 85.9247 415.452 85.2 415.23C84.9667 415.623 84.6174 415.934 84.2 416.12C83.6637 416.337 83.0881 416.439 82.51 416.42ZM81.65 408.14C81.5117 408.82 81.5391 409.523 81.73 410.19C81.8711 410.99 82.2029 411.744 82.6973 412.388C83.1917 413.032 83.8341 413.547 84.57 413.89C84.556 413.653 84.5158 413.418 84.45 413.19C83.67 410.33 82.17 408.36 81.65 408.14ZM87.22 407.27C87.2265 407.96 87.2834 408.649 87.39 409.33C87.5003 410.549 88.0388 411.69 88.91 412.55C88.6639 410.704 88.0917 408.916 87.22 407.27ZM93.51 406.4C93.51 406.4 93.13 406.59 92.99 408.26C92.85 409.93 93.14 411.08 93.92 411.75C94.1046 411.9 94.306 412.027 94.52 412.13C94.783 411.849 94.969 411.504 95.06 411.13C95.2381 409.556 94.8129 407.973 93.87 406.7C93.66 406.44 93.54 406.4 93.51 406.4Z" fill="#2DA5F3"/>
<path d="M228.87 423.98L231.58 419.28L228.87 414.58H225.97L227.61 419.28L225.97 423.98H228.87Z" fill="#2DA5F3"/>
<path d="M226.16 421.73C225.826 421.752 225.491 421.704 225.176 421.591C224.86 421.478 224.572 421.301 224.327 421.072C224.083 420.843 223.888 420.566 223.755 420.259C223.622 419.952 223.554 419.62 223.554 419.285C223.554 418.95 223.622 418.619 223.755 418.312C223.888 418.004 224.083 417.728 224.327 417.499C224.572 417.269 224.86 417.093 225.176 416.98C225.491 416.866 225.826 416.819 226.16 416.84L221.56 415.92L220.33 419.64L222.39 422.78L226.16 421.73Z" fill="#2DA5F3"/>
<path d="M226.56 414.58H221.13L218.42 419.28L221.13 423.98H226.56L229.27 419.28L226.56 414.58ZM223.85 421.73C223.365 421.732 222.89 421.59 222.486 421.322C222.082 421.054 221.766 420.672 221.579 420.225C221.392 419.777 221.342 419.284 221.436 418.808C221.529 418.332 221.762 417.895 222.104 417.551C222.446 417.208 222.883 416.973 223.358 416.878C223.834 416.783 224.327 416.831 224.775 417.016C225.223 417.201 225.607 417.515 225.876 417.918C226.146 418.321 226.29 418.795 226.29 419.28C226.29 419.928 226.033 420.55 225.576 421.009C225.119 421.468 224.498 421.727 223.85 421.73Z" fill="#AFD0FF"/>
<path d="M417.89 414.26L415.88 410.77L417.89 407.28H420.04L418.83 410.77L420.04 414.26H417.89Z" fill="#AFD0FF"/>
<path d="M419.9 412.59C420.15 412.609 420.401 412.576 420.637 412.493C420.873 412.41 421.09 412.279 421.274 412.109C421.457 411.939 421.603 411.732 421.703 411.503C421.804 411.273 421.855 411.026 421.855 410.775C421.855 410.525 421.804 410.277 421.703 410.048C421.603 409.818 421.457 409.612 421.274 409.442C421.09 409.271 420.873 409.141 420.637 409.058C420.401 408.975 420.15 408.942 419.9 408.96L423.32 408.28L424.23 411.04L422.71 413.37L419.9 412.59Z" fill="#B1D5FF"/>
<path d="M419.61 407.28H423.61L425.61 410.77L423.61 414.26H419.61L417.61 410.77L419.61 407.28ZM421.61 412.59C421.971 412.592 422.324 412.487 422.624 412.288C422.925 412.09 423.16 411.806 423.299 411.474C423.438 411.141 423.476 410.775 423.407 410.421C423.338 410.068 423.165 409.742 422.911 409.487C422.657 409.231 422.332 409.057 421.979 408.986C421.626 408.915 421.259 408.95 420.926 409.088C420.593 409.225 420.308 409.459 420.108 409.758C419.907 410.058 419.8 410.41 419.8 410.77C419.799 411.01 419.845 411.247 419.936 411.468C420.027 411.69 420.161 411.891 420.33 412.06C420.5 412.229 420.701 412.363 420.922 412.454C421.144 412.545 421.381 412.592 421.62 412.59H421.61Z" fill="#2DA5F3"/>
<path d="M343 418.9H347.52C348.086 418.897 348.628 418.671 349.027 418.27C349.426 417.869 349.65 417.326 349.65 416.76C349.65 416.194 349.426 415.651 349.027 415.25C348.628 414.849 348.086 414.623 347.52 414.62H343C342.433 414.62 341.888 414.846 341.487 415.247C341.086 415.648 340.86 416.193 340.86 416.76C340.86 417.328 341.086 417.872 341.487 418.273C341.888 418.675 342.433 418.9 343 418.9Z" fill="#2DA5F3"/>
<path d="M335.73 414.86C336.149 414.097 336.783 413.474 337.552 413.067C338.322 412.659 339.194 412.486 340.06 412.569C340.927 412.651 341.751 412.986 342.43 413.531C343.109 414.076 343.613 414.807 343.881 415.636C344.149 416.464 344.169 417.353 343.938 418.192C343.707 419.031 343.236 419.785 342.582 420.359C341.928 420.934 341.12 421.305 340.257 421.426C339.395 421.547 338.517 421.412 337.73 421.04C336.648 420.482 335.831 419.52 335.456 418.362C335.082 417.204 335.18 415.946 335.73 414.86Z" fill="#AFD0FF"/>
<path d="M336.949 421.039L338.188 421.623L342.495 412.487L341.256 411.903L336.949 421.039Z" fill="#2DA5F3"/>
</svg>
