<svg width="55" height="55" viewBox="0 0 55 55" fill="none" xmlns="http://www.w3.org/2000/svg">
<path fill-rule="evenodd" clip-rule="evenodd" d="M27.5 55C42.6878 55 55 42.6878 55 27.5C55 12.3122 42.6878 0 27.5 0C12.3122 0 0 12.3122 0 27.5C0 42.6878 12.3122 55 27.5 55Z" fill="#91B1E7"/>
<mask id="mask0_667_2699" style="mask-type:alpha" maskUnits="userSpaceOnUse" x="0" y="0" width="55" height="55">
<path fill-rule="evenodd" clip-rule="evenodd" d="M27.5 55C42.6878 55 55 42.6878 55 27.5C55 12.3122 42.6878 0 27.5 0C12.3122 0 0 12.3122 0 27.5C0 42.6878 12.3122 55 27.5 55Z" fill="white"/>
</mask>
<g mask="url(#mask0_667_2699)">
<path d="M21.4389 42.2514L14.182 46.1541C13.7561 46.3831 10.3898 47.7494 10.0337 48.0561C16.7677 53.1269 22.711 54.2567 28.6785 54.2567C34.6019 54.2567 41.1187 51.0317 45.3377 47.5624C44.9486 47.2384 43.4356 46.4356 42.9676 46.2057L35.1966 42.3754C34.1926 41.8804 33.5584 40.8688 33.5584 39.7621V36.7561C33.7768 36.5109 34.0264 36.196 34.2935 35.8241C35.3527 34.3491 36.1539 32.7267 36.7091 31.0246C37.7059 30.7215 38.4401 29.8139 38.4401 28.7352V25.5265C38.4401 24.8207 38.1216 24.19 37.6269 23.7485V19.1101C37.6269 19.1101 38.5934 11.8918 28.6785 11.8918C18.7636 11.8918 19.73 19.1101 19.73 19.1101V23.7485C19.2344 24.19 18.9169 24.8207 18.9169 25.5265V28.7352C18.9169 29.5804 19.3675 30.3242 20.0421 30.754C20.8552 34.2441 22.9845 36.7561 22.9845 36.7561V39.6879C22.9836 40.7556 22.3907 41.7392 21.4389 42.2514Z" fill="#D4E4FF"/>
</g>
</svg>
