<svg width="44" height="44" viewBox="0 0 44 44" fill="none" xmlns="http://www.w3.org/2000/svg">
<path fill-rule="evenodd" clip-rule="evenodd" d="M22 44C34.1503 44 44 34.1503 44 22C44 9.84974 34.1503 0 22 0C9.84974 0 0 9.84974 0 22C0 34.1503 9.84974 44 22 44Z" fill="#BDC4CD"/>
<mask id="mask0_649_2320" style="mask-type:alpha" maskUnits="userSpaceOnUse" x="0" y="0" width="44" height="44">
<path fill-rule="evenodd" clip-rule="evenodd" d="M22 44C34.1503 44 44 34.1503 44 22C44 9.84974 34.1503 0 22 0C9.84974 0 0 9.84974 0 22C0 34.1503 9.84974 44 22 44Z" fill="white"/>
</mask>
<g mask="url(#mask0_649_2320)">
<path d="M17.1512 33.8011L11.3456 36.9233C11.0049 37.1065 8.31186 38.1995 8.02698 38.4449C13.4142 42.5015 18.1688 43.4054 22.9428 43.4054C27.6815 43.4054 32.895 40.8254 36.2702 38.0499C35.9589 37.7908 34.7485 37.1485 34.3741 36.9646L28.1573 33.9003C27.3541 33.5043 26.8467 32.695 26.8467 31.8097V29.4049C27.0215 29.2087 27.2212 28.9568 27.4348 28.6593C28.2821 27.4793 28.9231 26.1813 29.3673 24.8197C30.1647 24.5772 30.7521 23.8511 30.7521 22.9882V20.4212C30.7521 19.8566 30.4973 19.352 30.1016 18.9988V15.2881C30.1016 15.2881 30.8747 9.51349 22.9428 9.51349C15.0109 9.51349 15.784 15.2881 15.784 15.2881V18.9988C15.3876 19.352 15.1335 19.8566 15.1335 20.4212V22.9882C15.1335 23.6643 15.494 24.2594 16.0337 24.6032C16.6842 27.3953 18.3876 29.4049 18.3876 29.4049V31.7503C18.3869 32.6045 17.9126 33.3914 17.1512 33.8011Z" fill="#DEE2E7"/>
</g>
</svg>
