<svg width="19" height="18" viewBox="0 0 19 18" fill="none" xmlns="http://www.w3.org/2000/svg">
<path d="M16.625 1.47812H15.0813V0.75625C15.0813 0.3625 14.7844 0.00156212 14.3984 0.00156212C14.0125 0.00156212 13.7156 0.329687 13.7156 0.75625V1.47812H5.2547V0.75625C5.2547 0.3625 4.95782 0.00156212 4.57189 0.00156212C4.18595 0.00156212 3.88907 0.329687 3.88907 0.75625V1.47812H2.37501C1.36564 1.47812 0.5047 2.39687 0.5047 3.54531V14.9641C0.5047 16.0797 1.33595 17.0313 2.37501 17.0313H16.625C17.6344 17.0313 18.4953 16.1125 18.4953 14.9641V3.5125C18.4953 2.39687 17.6344 1.47812 16.625 1.47812ZM1.87032 7.58125H4.39376V10.8297H1.87032V7.58125ZM5.7297 7.58125H8.84689V10.8297H5.7297V7.58125ZM8.84689 12.3063V15.5219H5.7297V12.3063H8.84689ZM10.1828 12.3063H13.3V15.5219H10.1828V12.3063ZM10.1828 10.8297V7.58125H13.3V10.8297H10.1828ZM14.6063 7.58125H17.1297V10.8297H14.6063V7.58125ZM2.37501 2.95469H3.91876V3.64375C3.91876 4.0375 4.21564 4.39844 4.60157 4.39844C4.98751 4.39844 5.28439 4.07031 5.28439 3.64375V2.95469H13.775V3.64375C13.775 4.0375 14.0719 4.39844 14.4578 4.39844C14.8438 4.39844 15.1406 4.07031 15.1406 3.64375V2.95469H16.625C16.9219 2.95469 17.1594 3.21719 17.1594 3.54531V6.10469H1.87032V3.54531C1.87032 3.21719 2.07814 2.95469 2.37501 2.95469ZM1.87032 14.9313V12.2734H4.39376V15.4891H2.37501C2.07814 15.5219 1.87032 15.2594 1.87032 14.9313ZM16.625 15.5219H14.6063V12.3063H17.1297V14.9641C17.1594 15.2594 16.9219 15.5219 16.625 15.5219Z" fill="#64748B"/>
</svg>
