<svg  viewBox="0 0 96 96" fill="none" xmlns="http://www.w3.org/2000/svg">
<rect width="96" height="96" rx="4" fill="#EAF6FE"/>
<path opacity="0.2" d="M41.3437 47.4001C42.8873 50.5876 45.4648 53.1585 48.6562 54.6938C48.8917 54.8053 49.1521 54.8535 49.4118 54.8338C49.6715 54.8141 49.9216 54.7271 50.1375 54.5813L54.825 51.4501C55.0321 51.3096 55.2714 51.2239 55.5206 51.2009C55.7698 51.178 56.0207 51.2185 56.25 51.3188L65.025 55.0876C65.3249 55.2124 65.5755 55.4323 65.7381 55.7135C65.9007 55.9947 65.9664 56.3216 65.925 56.6438C65.6469 58.8146 64.5873 60.8096 62.9446 62.2556C61.3018 63.7017 59.1885 64.4996 57 64.5001C50.237 64.5001 43.751 61.8135 38.9688 57.0313C34.1866 52.2491 31.5 45.7631 31.5 39.0001C31.5005 36.8116 32.2984 34.6982 33.7444 33.0555C35.1904 31.4127 37.1855 30.3532 39.3562 30.0751C39.6784 30.0337 40.0053 30.0993 40.2865 30.262C40.5677 30.4246 40.7877 30.6752 40.9125 30.9751L44.6812 39.7688C44.7793 39.9945 44.8203 40.2408 44.8006 40.486C44.781 40.7312 44.7014 40.9679 44.5687 41.1751L41.4375 45.9376C41.2981 46.153 41.2163 46.4005 41.1999 46.6566C41.1834 46.9126 41.233 47.1686 41.3437 47.4001Z" fill="#6A71F1"/>
<path d="M41.3437 47.4001C42.8873 50.5876 45.4648 53.1585 48.6562 54.6938C48.8917 54.8053 49.1521 54.8535 49.4118 54.8338C49.6715 54.8141 49.9216 54.7271 50.1375 54.5813L54.825 51.4501C55.0321 51.3096 55.2714 51.2239 55.5206 51.2009C55.7698 51.178 56.0207 51.2185 56.25 51.3188L65.025 55.0876C65.3249 55.2124 65.5755 55.4323 65.7381 55.7135C65.9007 55.9947 65.9664 56.3216 65.925 56.6438C65.6469 58.8146 64.5873 60.8096 62.9446 62.2556C61.3018 63.7017 59.1885 64.4996 57 64.5001C50.237 64.5001 43.751 61.8135 38.9688 57.0313C34.1866 52.2491 31.5 45.7631 31.5 39.0001C31.5005 36.8116 32.2984 34.6982 33.7444 33.0555C35.1904 31.4127 37.1855 30.3532 39.3562 30.0751C39.6784 30.0337 40.0053 30.0993 40.2865 30.262C40.5677 30.4246 40.7877 30.6752 40.9125 30.9751L44.6812 39.7688C44.7793 39.9945 44.8203 40.2408 44.8006 40.486C44.781 40.7312 44.7014 40.9679 44.5687 41.1751L41.4375 45.9376C41.2981 46.153 41.2163 46.4005 41.1999 46.6566C41.1834 46.9126 41.233 47.1686 41.3437 47.4001V47.4001Z" stroke="#6A71F1" stroke-width="3" stroke-linecap="round" stroke-linejoin="round"/>
<path d="M53.8875 31.5C56.4318 32.1828 58.7517 33.5228 60.6144 35.3856C62.4772 37.2483 63.8172 39.5682 64.5 42.1125" fill="#6A71F1"/>
<path d="M53.8875 31.5C56.4318 32.1828 58.7517 33.5228 60.6144 35.3856C62.4772 37.2483 63.8172 39.5682 64.5 42.1125" stroke="#6A71F1" stroke-width="3" stroke-linecap="round" stroke-linejoin="round"/>
<path d="M52.3312 37.2939C53.8615 37.7003 55.2571 38.504 56.3766 39.6236C57.4961 40.7431 58.2998 42.1387 58.7062 43.6689" fill="#6A71F1"/>
<path d="M52.3312 37.2939C53.8615 37.7003 55.2571 38.504 56.3766 39.6236C57.4961 40.7431 58.2998 42.1387 58.7062 43.6689" stroke="#6A71F1" stroke-width="3" stroke-linecap="round" stroke-linejoin="round"/>
</svg>
