<svg width="70" height="70" viewBox="0 0 70 70" fill="none" xmlns="http://www.w3.org/2000/svg">
<path opacity="0.2" d="M35 61.2499C49.4975 61.2499 61.25 49.4974 61.25 34.9999C61.25 20.5025 49.4975 8.74994 35 8.74994C20.5025 8.74994 8.75 20.5025 8.75 34.9999C8.75 49.4974 20.5025 61.2499 35 61.2499Z" fill="#2DB324"/>
<path d="M47.0311 28.4375L30.9803 43.75L22.9686 36.0938" stroke="#2DB324" stroke-width="4" stroke-linecap="round" stroke-linejoin="round"/>
<path d="M35 61.2499C49.4975 61.2499 61.25 49.4974 61.25 34.9999C61.25 20.5025 49.4975 8.74994 35 8.74994C20.5025 8.74994 8.75 20.5025 8.75 34.9999C8.75 49.4974 20.5025 61.2499 35 61.2499Z" stroke="#2DB324" stroke-width="4" stroke-linecap="round" stroke-linejoin="round"/>
</svg>
