<svg viewBox="0 0 33 32" fill="none" xmlns="http://www.w3.org/2000/svg">
<path opacity="0.2" d="M3.5 12.1125H29.5V24C29.5 24.2653 29.3946 24.5196 29.2071 24.7072C29.0196 24.8947 28.7652 25 28.5 25H4.5C4.23478 25 3.98043 24.8947 3.79289 24.7072C3.60536 24.5196 3.5 24.2653 3.5 24V12.1125Z" fill="#6A71F1"/>
<path d="M28.5 7H4.5C3.94772 7 3.5 7.44772 3.5 8V24C3.5 24.5523 3.94772 25 4.5 25H28.5C29.0523 25 29.5 24.5523 29.5 24V8C29.5 7.44772 29.0523 7 28.5 7Z" stroke="#6A71F1" stroke-width="2" stroke-linecap="round" stroke-linejoin="round"/>
<path d="M21.5 21H25.5" stroke="#6A71F1" stroke-width="2" stroke-linecap="round" stroke-linejoin="round"/>
<path d="M15.5 21H17.5" stroke="#6A71F1" stroke-width="2" stroke-linecap="round" stroke-linejoin="round"/>
<path d="M3.5 12.1125H29.5" stroke="#6A71F1" stroke-width="2" stroke-linecap="round" stroke-linejoin="round"/>
</svg>
