<svg width="22" height="16" viewBox="0 0 22 16" fill="none" xmlns="http://www.w3.org/2000/svg">
<path d="M0 0H7.33219V16H0V0Z" fill="#007A5E"/>
<path d="M7.33221 0H14.6678V16H7.33221V0Z" fill="#CE1126"/>
<path d="M14.6678 0H22V16H14.6678V0Z" fill="#FCD116"/>
<path d="M11 6.1037L10.3889 7.90518L11.3177 8.21333L11 6.1037Z" fill="#FCD116"/>
<path d="M11 6.1037L11.6111 7.90518L10.6823 8.21332L11 6.1037Z" fill="#FCD116"/>
<path d="M12.8573 7.42077L10.9031 7.39809L10.8962 8.35888L12.8573 7.42077Z" fill="#FCD116"/>
<path d="M12.8551 7.41743L11.2881 8.53566L10.6926 7.76227L12.8551 7.41743Z" fill="#FCD116"/>
<path d="M12.1528 9.53557L11.5474 7.72897L10.6136 8.00411L12.1528 9.53557Z" fill="#FCD116"/>
<path d="M12.1512 9.53694L10.5638 8.42123L11.1226 7.64622L12.1512 9.53694Z" fill="#FCD116"/>
<path d="M9.84882 9.537L11.4362 8.42129L10.8774 7.64628L9.84882 9.537Z" fill="#FCD116"/>
<path d="M9.84711 9.53563L10.4524 7.72903L11.3863 8.00417L9.84711 9.53563Z" fill="#FCD116"/>
<path d="M9.14492 7.41746L10.7119 8.53569L11.3074 7.7623L9.14492 7.41746Z" fill="#FCD116"/>
<path d="M9.14268 7.4207L11.0969 7.39803L11.1038 8.35881L9.14268 7.4207Z" fill="#FCD116"/>
</svg>
