<?xml version="1.0" encoding="utf-8"?>
<svg width="33px" height="33px" viewBox="0 0 33 33" version="1.1" xmlns:xlink="http://www.w3.org/1999/xlink" xmlns="http://www.w3.org/2000/svg">
  <g id="chart-breakout-circle">
    <path d="M0 0L33 0L33 33L0 33L0 0Z" id="chart-breakout-circle" fill="none" fill-rule="evenodd" stroke="none" />
    <g id="Groupes" transform="translate(0.80000305 1.7999878)">
      <path d="M19.2652 1.5C19.2652 0.671573 18.5936 0 17.7652 0C16.9368 0 16.2652 0.671573 16.2652 1.5L16.2652 4.86458C16.2652 5.69301 16.9368 6.36458 17.7652 6.36458C18.5936 6.36458 19.2652 5.69301 19.2652 4.86458L19.2652 1.5L19.2652 1.5ZM11.7739 3.36851C12.5762 3.16202 13.0591 2.34425 12.8527 1.54197C12.6462 0.739693 11.8284 0.256713 11.0261 0.463203C4.68622 2.09498 0 7.84833 0 14.7C0 22.8186 6.58141 29.4 14.7 29.4C21.8782 29.4 27.8518 24.2565 29.1421 17.4546C29.2965 16.6406 28.7618 15.8557 27.9479 15.7013C27.134 15.5469 26.349 16.0815 26.1946 16.8954C25.1679 22.3077 20.4103 26.4 14.7 26.4C9.59941 26.4 5.26114 23.1361 3.65978 18.583C3.86482 18.5856 4.07263 18.5883 4.28277 18.5911C6.88903 18.626 9.85441 18.6656 12.3609 18.2613C13.7805 18.0324 15.1857 17.6452 16.3716 16.9561L16.3716 18C16.3716 18.8284 17.0432 19.5 17.8716 19.5C18.7 19.5 19.3716 18.8284 19.3716 18L19.3716 12.3952C19.3716 11.5668 18.7 10.8952 17.8716 10.8952L13.194 10.8952C12.3656 10.8952 11.694 11.5668 11.694 12.3952C11.694 13.2236 12.3656 13.8952 13.194 13.8952L15.5104 13.8952C15.3953 14.0003 15.2699 14.0987 15.1343 14.1918C14.3857 14.7059 13.2957 15.0718 11.8832 15.2996C9.6615 15.6579 7.06276 15.6247 4.49124 15.5918C4.00302 15.5855 3.51578 15.5793 3.03228 15.5758C3.01089 15.2866 3 14.9946 3 14.7C3 9.25032 6.72727 4.66742 11.7739 3.36851L11.7739 3.36851ZM25.8414 5.67992C26.4277 5.09461 26.4284 4.14486 25.8431 3.5586C25.2578 2.97234 24.3081 2.97158 23.7218 3.55689L21.4894 5.78571C20.9031 6.37102 20.9023 7.32077 21.4877 7.90703C22.073 8.49329 23.0227 8.49405 23.609 7.90874L25.8414 5.67992L25.8414 5.67992ZM24.5354 10.1348C23.707 10.1348 23.0354 10.8064 23.0354 11.6348C23.0354 12.4632 23.707 13.1348 24.5354 13.1348L27.9 13.1348C28.7284 13.1348 29.4 12.4632 29.4 11.6348C29.4 10.8064 28.7284 10.1348 27.9 10.1348L24.5354 10.1348L24.5354 10.1348Z" id="Icon" fill="#6A71F1" fill-rule="evenodd" stroke="none" />
    </g>
  </g>
</svg>