<?xml version="1.0" encoding="utf-8"?>
<svg width="84px" height="84px" viewBox="0 0 84 84" version="1.1" xmlns:xlink="http://www.w3.org/1999/xlink" xmlns="http://www.w3.org/2000/svg">
  <defs>
    <path d="M0 0L84 0L84 84L0 84L0 0Z" id="path_1" />
    <clipPath id="clip_1">
      <use xlink:href="#path_1" />
    </clipPath>
  </defs>
  <g id="Logo" clip-path="url(#clip_1)">
    <path d="M0 0L84 0L84 84L0 84L0 0Z" id="Logo" fill="none" fill-rule="evenodd" stroke="none" />
    <path d="M17.5291 62.018C4.56792 48.0707 4.97616 26.4843 18.1642 13.0225L18.1793 13.0385C18.2709 12.931 18.3666 12.8167 18.4708 12.7168C21.0177 10.1086 25.1933 10.0624 27.7948 12.6101C30.4021 15.1578 30.4483 19.3368 27.8981 21.9408C27.7948 22.0449 27.6881 22.1407 27.5772 22.2356L27.5881 22.2432C16.9176 33.2153 16.611 50.7385 27.1471 62.0751C37.9505 73.7069 56.0987 74.4392 67.8111 63.7657C67.7761 63.7992 67.7418 63.833 67.7065 63.8652C53.3408 77.2136 30.8767 76.3879 17.5291 62.018L17.5291 62.018ZM68.8111 63.6737C68.4783 64.008 68.1449 64.3414 67.8111 64.6737C68.1352 64.3336 68.4644 63.9952 68.8111 63.6737L68.8111 63.6737Z" id="Vector" fill="#6A71F1" fill-rule="evenodd" stroke="none" />
    <path d="M31.6025 60.9193C21.8811 50.4613 22.1869 34.272 32.077 24.1752L32.0846 24.1911C32.1569 24.1063 32.2299 24.0223 32.3072 23.9459C34.2149 21.992 37.348 21.9576 39.3019 23.8703C41.2565 25.7779 41.2876 28.9111 39.3749 30.8649C39.3019 30.9447 39.2137 31.0128 39.1372 31.0833L39.1448 31.0901C31.1438 39.3204 30.9187 52.4613 38.8155 60.968C46.8822 69.6534 60.4051 70.2334 69.1886 62.3459C58.4182 72.3166 41.5959 71.6854 31.6025 60.9193L31.6025 60.9193ZM70.1886 62.295C69.8557 62.6291 69.5223 62.9624 69.1886 63.295C69.4151 63.0623 69.6414 62.8294 69.8676 62.5961C69.977 62.4946 70.084 62.3943 70.1886 62.295L70.1886 62.295ZM70.2451 62.1675C69.926 62.4934 69.6219 62.8142 69.2451 63.1675C69.5794 62.8361 69.9127 62.5028 70.2451 62.1675L70.2451 62.1675Z" id="Vector" fill="#86A6BB" fill-rule="evenodd" stroke="none" />
    <path d="M65.8098 61.6241C75.5084 57.073 79.8378 45.7296 75.7873 35.9352L75.7755 35.9386C75.7528 35.863 75.731 35.7857 75.6957 35.7092C74.9112 33.8125 72.7465 32.9095 70.8498 33.6899C68.953 34.4744 68.0534 36.6433 68.8329 38.5392C68.8674 38.6148 68.9026 38.6837 68.9371 38.761L68.9329 38.761C72.1887 46.7267 68.6624 55.9331 60.7832 59.635C52.6764 63.4368 43.0223 59.9684 39.1826 51.886C39.202 51.9389 39.2255 51.9859 39.2473 52.0321C43.9337 62.018 55.8272 66.3138 65.8098 61.6241L65.8098 61.6241Z" id="Vector" fill="#6A71F1" fill-rule="evenodd" stroke="none" />
    <path d="M58.7042 58.097C65.9694 54.6824 69.221 46.174 66.1836 38.8298L66.176 38.8298C66.1575 38.7736 66.1374 38.7114 66.1155 38.6551C65.5267 37.2364 63.9013 36.5585 62.4817 37.1482C61.0604 37.7286 60.3867 39.3582 60.9672 40.777C60.9974 40.8349 61.0201 40.8878 61.0478 40.9416L61.0444 40.95C63.483 46.9224 60.8378 53.823 54.9284 56.5992C48.8972 59.4286 41.7257 56.8941 38.7962 50.9398C38.7901 50.9268 38.7839 50.9137 38.7778 50.9007C38.7626 50.8629 38.7433 50.8242 38.7248 50.7923C38.7483 50.8417 38.7721 50.8909 38.7962 50.9398C42.3285 58.3996 51.2245 61.6028 58.7042 58.097L58.7042 58.097Z" id="Vector" fill="#86A6BB" fill-rule="evenodd" stroke="none" />
  </g>
</svg>