<svg viewBox="0 0 84 85" fill="none" xmlns="http://www.w3.org/2000/svg"><path d="M17.5291 62.518C4.56794 48.5707 4.97618 26.9844 18.1642 13.5225L18.1793 13.5385C18.2709 13.431 18.3666 13.3167 18.4708 13.2168C21.0177 10.6086 25.1933 10.5624 27.7948 13.1101C30.4021 15.6578 30.4483 19.8368 27.8981 22.4408C27.7948 22.545 27.6881 22.6407 27.5772 22.7356L27.5881 22.7432C16.9176 33.7153 16.611 51.2385 27.1471 62.5752C37.9815 74.2402 56.2027 74.9433 67.9115 64.1737C67.8393 64.235 67.7746 64.303 67.7065 64.3652C53.3409 77.7136 30.8767 76.8879 17.5291 62.518Z" fill="#6A71F1"/><path d="M31.6025 61.4193C21.8811 50.9613 22.1869 34.772 32.0771 24.6752L32.0846 24.6911C32.1569 24.6063 32.2299 24.5223 32.3072 24.4459C34.2149 22.492 37.3481 22.4576 39.3019 24.3703C41.2566 26.2779 41.2877 29.4111 39.375 31.3649C39.3019 31.4447 39.2137 31.5128 39.1373 31.5833L39.1448 31.5901C31.1438 39.8204 30.9187 52.9613 38.8155 61.468C46.9425 70.2183 60.6077 70.7416 69.3848 62.6675C69.3353 62.7137 69.2882 62.7591 69.2269 62.8103C58.4581 72.8181 41.6077 72.1982 31.6025 61.4193Z" fill="black"/><path d="M65.8098 62.1241C75.5084 57.573 79.8378 46.2296 75.7873 36.4352L75.7755 36.4386C75.7529 36.363 75.731 36.2857 75.6957 36.2092C74.9112 34.3125 72.7465 33.4095 70.8498 34.1899C68.9531 34.9744 68.0534 37.1433 68.8329 39.0392C68.8674 39.1148 68.9027 39.1837 68.9371 39.261H68.9329C72.1887 47.2267 68.6624 56.4331 60.7832 60.135C52.6764 63.9368 43.0223 60.4684 39.1826 52.386C39.2019 52.4389 39.2255 52.4859 39.2473 52.5321C43.9337 62.518 55.8272 66.8138 65.8098 62.1241Z" fill="#6A71F1"/><path d="M58.7043 58.5969C65.9694 55.1823 69.2211 46.6739 66.1836 39.3298H66.1761C66.1576 39.2735 66.1374 39.2114 66.1156 39.1551C65.5267 37.7363 63.9013 37.0585 62.4817 37.6481C61.0605 38.2286 60.3868 39.8582 60.9672 41.2769C60.9975 41.3349 61.0201 41.3878 61.0479 41.4416L61.0445 41.45C63.483 47.4224 60.8379 54.323 54.9285 57.0992C48.8477 59.9518 41.6077 57.352 38.7249 51.2923C38.7433 51.3242 38.7627 51.3628 38.7778 51.4006C42.2974 58.8884 51.2115 62.109 58.7043 58.5969Z" fill="black"/></svg>
