<svg width="32" height="32" viewBox="0 0 32 32" fill="none" xmlns="http://www.w3.org/2000/svg">
<path opacity="0.2" d="M9.23744 13.925L5.31244 18.625C5.21356 18.7404 5.14379 18.8778 5.10899 19.0257C5.07419 19.1736 5.07538 19.3277 5.11244 19.475L6.64994 26.4375C6.68704 26.603 6.76563 26.7564 6.87831 26.8832C6.99099 27.0099 7.13405 27.1059 7.29406 27.1622C7.45407 27.2184 7.62575 27.2331 7.79297 27.2047C7.96018 27.1763 8.11744 27.1059 8.24994 27L11.9999 24C9.79994 20.175 9.08744 16.8125 9.23744 13.925Z" fill="#6A71F1"/>
<path opacity="0.2" d="M22.6875 13.8374L26.6125 18.5499C26.7114 18.6653 26.7812 18.8027 26.816 18.9506C26.8508 19.0985 26.8496 19.2526 26.8125 19.3999L25.275 26.3499C25.2396 26.5165 25.1622 26.6712 25.0503 26.7995C24.9383 26.9277 24.7954 27.0253 24.6351 27.0829C24.4749 27.1405 24.3026 27.1562 24.1346 27.1285C23.9666 27.1009 23.8084 27.0308 23.675 26.9249L19.925 23.9249C22.125 20.0874 22.8375 16.7249 22.6875 13.8374Z" fill="#6A71F1"/>
<path d="M18 28H14" stroke="#6A71F1" stroke-width="2" stroke-linecap="round" stroke-linejoin="round"/>
<path d="M15.3751 2.47496C13.0001 4.37496 5.06255 11.975 12.0001 24H20.0001C26.8001 11.975 18.9751 4.38746 16.6251 2.47496C16.4497 2.32851 16.2285 2.24829 16.0001 2.24829C15.7716 2.24829 15.5504 2.32851 15.3751 2.47496Z" stroke="#6A71F1" stroke-width="2" stroke-linecap="round" stroke-linejoin="round"/>
<path d="M9.23744 13.925L5.31244 18.625C5.21356 18.7404 5.14379 18.8778 5.10899 19.0257C5.07419 19.1736 5.07538 19.3277 5.11244 19.475L6.64994 26.4375C6.68704 26.603 6.76563 26.7564 6.87831 26.8832C6.99099 27.0099 7.13405 27.1059 7.29406 27.1622C7.45407 27.2184 7.62575 27.2331 7.79297 27.2047C7.96018 27.1763 8.11744 27.1059 8.24994 27L11.9999 24" stroke="#6A71F1" stroke-width="2" stroke-linecap="round" stroke-linejoin="round"/>
<path d="M22.6875 13.825L26.6875 18.625C26.7864 18.7403 26.8561 18.8777 26.8909 19.0256C26.9258 19.1735 26.9246 19.3276 26.8875 19.475L25.35 26.4375C25.3129 26.6029 25.2343 26.7563 25.1216 26.8831C25.009 27.0098 24.8659 27.1058 24.7059 27.1621C24.5459 27.2184 24.3742 27.233 24.207 27.2046C24.0398 27.1763 23.8825 27.1058 23.75 27L20 24" stroke="#6A71F1" stroke-width="2" stroke-linecap="round" stroke-linejoin="round"/>
<path d="M16 13.5C16.8284 13.5 17.5 12.8284 17.5 12C17.5 11.1716 16.8284 10.5 16 10.5C15.1716 10.5 14.5 11.1716 14.5 12C14.5 12.8284 15.1716 13.5 16 13.5Z" fill="#6A71F1"/>
</svg>
