<svg width="18" height="18" viewBox="0 0 18 18" fill="none" xmlns="http://www.w3.org/2000/svg">
<path d="M12.442 11.0671H11.7178L11.4611 10.8196C12.3595 9.7746 12.9003 8.41793 12.9003 6.9421C12.9003 3.65126 10.2328 0.983765 6.94198 0.983765C3.65114 0.983765 0.983643 3.65126 0.983643 6.9421C0.983643 10.2329 3.65114 12.9004 6.94198 12.9004C8.41781 12.9004 9.77448 12.3596 10.8195 11.4613L11.067 11.7179V12.4421L15.6503 17.0163L17.0161 15.6504L12.442 11.0671ZM6.94198 11.0671C4.65948 11.0671 2.81698 9.2246 2.81698 6.9421C2.81698 4.6596 4.65948 2.8171 6.94198 2.8171C9.22448 2.8171 11.067 4.6596 11.067 6.9421C11.067 9.2246 9.22448 11.0671 6.94198 11.0671Z" fill="#86A6BB"/>
</svg>
