<svg width="20" height="20" viewBox="0 0 20 20" fill="none" xmlns="http://www.w3.org/2000/svg">
<path d="M18.3335 7.90833H14.3418L10.6918 2.44166C10.5335 2.20833 10.2668 2.09166 10.0002 2.09166C9.7335 2.09166 9.46683 2.20833 9.3085 2.44999L5.6585 7.90833H1.66683C1.2085 7.90833 0.833496 8.28333 0.833496 8.74166C0.833496 8.81666 0.841829 8.89166 0.866829 8.96666L2.9835 16.6917C3.17516 17.3917 3.81683 17.9083 4.5835 17.9083H15.4168C16.1835 17.9083 16.8252 17.3917 17.0252 16.6917L19.1418 8.96666L19.1668 8.74166C19.1668 8.28333 18.7918 7.90833 18.3335 7.90833ZM10.0002 4.40833L12.3335 7.90833H7.66683L10.0002 4.40833ZM15.4168 16.2417L4.59183 16.25L2.7585 9.57499H17.2502L15.4168 16.2417ZM10.0002 11.2417C9.0835 11.2417 8.3335 11.9917 8.3335 12.9083C8.3335 13.825 9.0835 14.575 10.0002 14.575C10.9168 14.575 11.6668 13.825 11.6668 12.9083C11.6668 11.9917 10.9168 11.2417 10.0002 11.2417Z" fill="#8B96A5"/>
</svg>
