<svg  viewBox="0 0 33 32" fill="none" xmlns="http://www.w3.org/2000/svg">
<path opacity="0.2" d="M16.5 20C20.9183 20 24.5 16.4183 24.5 12C24.5 7.58172 20.9183 4 16.5 4C12.0817 4 8.5 7.58172 8.5 12C8.5 16.4183 12.0817 20 16.5 20Z" fill="#6A71F1"/>
<path d="M16.5 20C20.9183 20 24.5 16.4183 24.5 12C24.5 7.58172 20.9183 4 16.5 4C12.0817 4 8.5 7.58172 8.5 12C8.5 16.4183 12.0817 20 16.5 20Z" stroke="#6A71F1" stroke-width="2" stroke-miterlimit="10"/>
<path d="M4.375 26.9999C5.60367 24.8713 7.37104 23.1037 9.49944 21.8747C11.6278 20.6458 14.0423 19.9988 16.5 19.9988C18.9577 19.9988 21.3722 20.6458 23.5006 21.8747C25.629 23.1037 27.3963 24.8713 28.625 26.9999" stroke="#6A71F1" stroke-width="2" stroke-linecap="round" stroke-linejoin="round"/>
</svg>
