<svg width="84" height="84" viewBox="0 0 84 84" fill="none" xmlns="http://www.w3.org/2000/svg">
<path d="M17.5291 62.018C4.56794 48.0707 4.97618 26.4843 18.1642 13.0225L18.1793 13.0384C18.2709 12.9309 18.3666 12.8167 18.4708 12.7167C21.0177 10.1085 25.1933 10.0623 27.7948 12.61C30.4021 15.1578 30.4483 19.3368 27.8981 21.9408C27.7948 22.0449 27.6881 22.1407 27.5772 22.2356L27.5881 22.2432C16.9176 33.2152 16.611 50.7385 27.1471 62.0751C37.9815 73.7402 56.2027 74.4433 67.9115 63.6737C67.8393 63.735 67.7746 63.803 67.7065 63.8652C53.3409 77.2136 30.8767 76.3879 17.5291 62.018Z" fill="#6A71F1"/>
<path d="M31.6025 60.9192C21.8811 50.4612 22.1869 34.2719 32.0771 24.1751L32.0846 24.1911C32.1569 24.1062 32.2299 24.0222 32.3072 23.9458C34.2149 21.992 37.3481 21.9575 39.3019 23.8702C41.2566 25.7778 41.2877 28.911 39.375 30.8649C39.3019 30.9447 39.2137 31.0127 39.1373 31.0833L39.1448 31.09C31.1438 39.3203 30.9187 52.4613 38.8155 60.968C46.9425 69.7182 60.6077 70.2416 69.3848 62.1675C69.3353 62.2137 69.2882 62.259 69.2269 62.3103C58.4581 72.318 41.6077 71.6981 31.6025 60.9192Z" fill="#86A6BB"/>
<path d="M65.8098 61.624C75.5084 57.0728 79.8378 45.7295 75.7873 35.9351L75.7755 35.9384C75.7529 35.8628 75.731 35.7856 75.6957 35.7091C74.9112 33.8124 72.7465 32.9094 70.8498 33.6898C68.9531 34.4743 68.0534 36.6432 68.8329 38.5391C68.8674 38.6147 68.9027 38.6836 68.9371 38.7608H68.9329C72.1887 46.7266 68.6624 55.933 60.7832 59.6348C52.6764 63.4367 43.0223 59.9683 39.1826 51.8858C39.2019 51.9388 39.2255 51.9858 39.2473 52.032C43.9337 62.0179 55.8272 66.3137 65.8098 61.624Z" fill="#6A71F1"/>
<path d="M58.7043 58.097C65.9694 54.6824 69.2211 46.174 66.1836 38.8299H66.1761C66.1576 38.7736 66.1374 38.7114 66.1156 38.6552C65.5267 37.2364 63.9013 36.5585 62.4817 37.1482C61.0605 37.7286 60.3868 39.3582 60.9672 40.777C60.9975 40.835 61.0201 40.8879 61.0479 40.9416L61.0445 40.95C63.483 46.9224 60.8379 53.823 54.9285 56.5992C48.8477 59.4519 41.6077 56.8521 38.7249 50.7923C38.7433 50.8242 38.7627 50.8629 38.7778 50.9007C42.2974 58.3885 51.2115 61.609 58.7043 58.097Z" fill="#86A6BB"/>
</svg>
